Coordinates
version=1
nRows=38
nColumns=38
inDegrees=no

Units are S.I. units (second, meters, Newtons, ...)
If the header above contains a line with 'inDegrees', this indicates whether rotational values are in degrees (yes) or radians (no).

endheader
time	pelvis_tilt	pelvis_list	pelvis_rotation	pelvis_tx	pelvis_ty	pelvis_tz	hip_flexion_r	hip_adduction_r	hip_rotation_r	knee_angle_r	ankle_angle_r	subtalar_angle_r	mtp_angle_r	hip_flexion_l	hip_adduction_l	hip_rotation_l	knee_angle_l	ankle_angle_l	subtalar_angle_l	mtp_angle_l	lumbar_extension	lumbar_bending	lumbar_rotation	arm_flex_r	arm_add_r	arm_rot_r	elbow_flex_r	pro_sup_r	wrist_flex_r	wrist_dev_r	arm_flex_l	arm_add_l	arm_rot_l	elbow_flex_l	pro_sup_l	wrist_flex_l	wrist_dev_l
2.43	1.00328	1.49809	0.723735	0.644353	1.5859	0.92823	0.440233	-0.036718	-0.177467	0.498709	-0.263581	0	0	-0.216829	-0.126078	-0.138892	0.514596	-0.244433	0	0	-0.0132221	0.0778983	-0.127459	-0.0694523	-0.252925	0.17323	0.607942	1.5708	0	0	0.0749164	-0.245168	0.377952	0.730155	1.5708	0	0
2.44	1.10485	1.49652	0.621385	0.645872	1.59795	0.929862	0.425877	-0.0259285	-0.169551	0.505261	-0.265073	0	0	-0.21176	-0.138461	-0.138232	0.553093	-0.266123	0	0	-0.014155	0.0841974	-0.12854	-0.0734402	-0.2527	0.174175	0.607893	1.5708	0	0	0.0642008	-0.243326	0.379187	0.720743	1.5708	0	0
2.45	1.20631	1.4941	0.518197	0.647661	1.60992	0.931606	0.410327	-0.0143952	-0.166033	0.509719	-0.263996	0	0	-0.204004	-0.151676	-0.137305	0.596674	-0.28999	0	0	-0.0156454	0.0903856	-0.12835	-0.0773976	-0.252608	0.175796	0.609019	1.5708	0	0	0.0537388	-0.242619	0.381976	0.712002	1.5708	0	0
2.46	1.23	1.49073	0.490049	0.649663	1.62149	0.932824	0.402959	-0.00605012	-0.172487	0.518166	-0.262461	0	0	-0.186763	-0.161461	-0.134404	0.647038	-0.315013	0	0	-0.0120066	0.0940343	-0.125457	-0.081923	-0.253173	0.178298	0.611968	1.5708	0	0	0.0431672	-0.242617	0.385994	0.703999	1.5708	0	0
2.47	1.25014	1.48707	0.465527	0.651747	1.63294	0.933972	0.393966	0.00252396	-0.180094	0.522992	-0.25954	0	0	-0.166454	-0.171414	-0.128851	0.700734	-0.33854	0	0	-0.00816778	0.0976229	-0.122215	-0.0868883	-0.253962	0.18054	0.616596	1.5708	0	0	0.0326763	-0.24331	0.390647	0.697215	1.5708	0	0
2.48	1.28254	1.48357	0.429744	0.65375	1.64423	0.935144	0.380852	0.0114685	-0.186594	0.522693	-0.255622	0	0	-0.144903	-0.181566	-0.120847	0.756071	-0.361723	0	0	-0.00584209	0.101438	-0.119202	-0.0919811	-0.255125	0.182342	0.623093	1.5708	0	0	0.0227032	-0.244627	0.395948	0.691931	1.5708	0	0
2.49	1.30256	1.48042	0.406698	0.6556	1.65522	0.936115	0.3679	0.0188604	-0.194217	0.522696	-0.250181	0	0	-0.120073	-0.190004	-0.111431	0.813128	-0.385581	0	0	-0.00323515	0.104496	-0.115701	-0.0974358	-0.257687	0.185367	0.6322	1.5708	0	0	0.0137129	-0.246583	0.402879	0.687868	1.5708	0	0
2.5	1.29388	1.47768	0.411098	0.657402	1.66591	0.936753	0.358292	0.0246824	-0.201291	0.525918	-0.242355	0	0	-0.0916154	-0.195592	-0.101637	0.871014	-0.403971	0	0	0.00126528	0.106233	-0.110426	-0.103096	-0.26113	0.188884	0.642942	1.5708	0	0	0.00525904	-0.248752	0.4104	0.684818	1.5708	0	0
2.51	1.29055	1.47516	0.409379	0.659238	1.67665	0.937418	0.346805	0.0318323	-0.202077	0.526582	-0.233274	0	0	-0.0639792	-0.200435	-0.0925474	0.927794	-0.41496	0	0	0.0052843	0.107904	-0.103752	-0.108616	-0.264566	0.191886	0.653574	1.5708	0	0	-0.00302239	-0.250914	0.417627	0.682344	1.5708	0	0
2.52	1.30291	1.47319	0.393856	0.660731	1.68712	0.938226	0.333037	0.0385643	-0.202311	0.525169	-0.224464	0	0	-0.0370772	-0.204961	-0.0824035	0.984752	-0.42035	0	0	0.00709675	0.109863	-0.0980414	-0.113147	-0.268147	0.19404	0.664107	1.5708	0	0	-0.00984555	-0.252771	0.424724	0.679993	1.5708	0	0
2.53	1.32035	1.47203	0.37446	0.661964	1.69726	0.939173	0.318466	0.0441033	-0.203749	0.522257	-0.217032	0	0	-0.00990709	-0.208399	-0.072211	1.04154	-0.423602	0	0	0.00727366	0.111364	-0.0926781	-0.116056	-0.27139	0.195228	0.673199	1.5708	0	0	-0.015111	-0.254228	0.431521	0.677473	1.5708	0	0
2.54	1.34405	1.4722	0.348528	0.663217	1.70705	0.940318	0.302847	0.0486931	-0.203917	0.517733	-0.211528	0	0	0.016733	-0.210487	-0.0639084	1.09683	-0.427384	0	0	0.00523555	0.111584	-0.0862048	-0.116899	-0.273766	0.195715	0.680222	1.5708	0	0	-0.0190879	-0.255889	0.437518	0.675479	1.5708	0	0
2.55	1.38436	1.47374	0.305421	0.664561	1.71658	0.94173	0.28461	0.0529244	-0.201099	0.511373	-0.207167	0	0	0.0415057	-0.211497	-0.0582239	1.14935	-0.427573	0	0	0.000159789	0.110596	-0.0784823	-0.11564	-0.275143	0.195647	0.685158	1.5708	0	0	-0.0221855	-0.257851	0.441922	0.674524	1.5708	0	0
2.56	1.43982	1.47535	0.248629	0.665771	1.72623	0.943349	0.262501	0.0573187	-0.19848	0.500793	-0.203159	0	0	0.0643182	-0.212407	-0.0532064	1.19673	-0.417173	0	0	-0.00574597	0.109417	-0.071901	-0.113096	-0.276006	0.195985	0.687483	1.5708	0	0	-0.0254809	-0.259851	0.445012	0.67382	1.5708	0	0
2.57	1.49246	1.47719	0.194125	0.666988	1.73599	0.944947	0.239664	0.0613175	-0.195102	0.488959	-0.199675	0	0	0.0860012	-0.212374	-0.0501892	1.23785	-0.397598	0	0	-0.0107	0.107316	-0.065108	-0.109492	-0.276698	0.197643	0.687531	1.5708	0	0	-0.030074	-0.262059	0.445835	0.67436	1.5708	0	0
2.58	1.55414	1.47926	0.131943	0.667945	1.74551	0.946568	0.21582	0.064284	-0.193005	0.476641	-0.196379	0	0	0.107269	-0.210606	-0.0453685	1.27454	-0.37241	0	0	-0.0166383	0.104807	-0.0601042	-0.104029	-0.278232	0.201794	0.686663	1.5708	0	0	-0.0351022	-0.264359	0.444104	0.676681	1.5708	0	0
2.59	1.62699	1.48144	0.0585064	0.668892	1.7548	0.9482	0.191072	0.0670361	-0.189285	0.463641	-0.193157	0	0	0.127714	-0.208247	-0.0417735	1.30745	-0.343804	0	0	-0.0238738	0.101728	-0.0557787	-0.0964718	-0.280646	0.209537	0.685175	1.5708	0	0	-0.0408761	-0.267161	0.439732	0.681281	1.5708	0	0
2.6	1.68883	1.4836	-0.00412479	0.669978	1.76416	0.949667	0.167638	0.0696063	-0.185042	0.450579	-0.190227	0	0	0.149066	-0.206288	-0.0408989	1.33574	-0.320874	0	0	-0.029276	0.0977217	-0.0522229	-0.0880624	-0.282407	0.218164	0.682388	1.5708	0	0	-0.0481044	-0.27087	0.43405	0.68738	1.5708	0	0
2.61	1.74281	1.48643	-0.0606449	0.671078	1.77347	0.951045	0.146169	0.0707298	-0.181944	0.438763	-0.188156	0	0	0.170381	-0.202734	-0.0411873	1.35839	-0.300815	0	0	-0.0336619	0.0927905	-0.0479257	-0.0785054	-0.284426	0.22824	0.678834	1.5708	0	0	-0.0560688	-0.274183	0.426532	0.693553	1.5708	0	0
2.62	1.7983	1.48996	-0.120762	0.672243	1.78273	0.952374	0.12611	0.0702692	-0.180423	0.428992	-0.186629	0	0	0.190381	-0.197313	-0.0415751	1.37458	-0.285901	0	0	-0.0378294	0.086944	-0.0421711	-0.0683067	-0.286636	0.238711	0.675149	1.5708	0	0	-0.0642859	-0.276878	0.417666	0.699412	1.5708	0	0
2.63	1.77755	1.51571	-0.0997437	0.666612	1.78999	0.953387	0.126984	0.0299638	-0.207885	0.445863	-0.180159	0	0	0.220592	-0.139801	-0.020634	1.38355	-0.268799	0	0	-0.0346521	0.0689687	-0.0423785	-0.0586473	-0.302969	0.249861	0.67857	1.5708	0	0	-0.0614332	-0.259882	0.41	0.681403	1.5708	0	0
2.64	1.83832	1.50028	-0.172251	0.674472	1.80061	0.954157	0.0984531	0.0642258	-0.182114	0.419207	-0.179221	0	0	0.237053	-0.185498	-0.0493972	1.39205	-0.265421	0	0	-0.0393819	0.0726735	-0.0294131	-0.047211	-0.290879	0.258	0.668695	1.5708	0	0	-0.0801234	-0.280487	0.396894	0.709526	1.5708	0	0
2.65	1.89493	1.50448	-0.234342	0.675503	1.8095	0.955144	0.0806532	0.0620473	-0.181205	0.409569	-0.179107	0	0	0.25653	-0.181854	-0.0576761	1.39201	-0.259018	0	0	-0.0429419	0.0660205	-0.0229515	-0.0370988	-0.291905	0.262587	0.667081	1.5708	0	0	-0.0864332	-0.282583	0.388689	0.714083	1.5708	0	0
2.66	1.98354	1.50782	-0.327711	0.676426	1.81849	0.956162	0.0605006	0.0595605	-0.179103	0.399603	-0.177773	0	0	0.272827	-0.179155	-0.0679911	1.38659	-0.252106	0	0	-0.0481229	0.0594263	-0.0171442	-0.0275079	-0.292478	0.265206	0.666589	1.5708	0	0	-0.0924649	-0.284726	0.38075	0.718606	1.5708	0	0
2.67	2.09562	1.50996	-0.444197	0.677295	1.82753	0.957114	0.0387027	0.0573015	-0.17726	0.388859	-0.176278	0	0	0.286738	-0.17778	-0.080837	1.37654	-0.245125	0	0	-0.0544315	0.0530474	-0.0113747	-0.0189561	-0.292671	0.265027	0.667875	1.5708	0	0	-0.0978684	-0.287059	0.373812	0.723127	1.5708	0	0
2.68	2.21932	1.51067	-0.572132	0.678115	1.83658	0.957949	0.0158099	0.0555103	-0.175195	0.3771	-0.174943	0	0	0.298903	-0.177936	-0.0963294	1.36238	-0.238959	0	0	-0.0614828	0.0470309	-0.00546341	-0.0114175	-0.292568	0.262111	0.670983	1.5708	0	0	-0.10265	-0.289349	0.367448	0.727679	1.5708	0	0
2.69	2.34635	1.5094	-0.703292	0.678883	1.84561	0.958715	-0.00841819	0.0544972	-0.172116	0.363506	-0.174425	0	0	0.309181	-0.180209	-0.115023	1.34412	-0.234497	0	0	-0.0696116	0.0418025	0.000846511	-0.00496895	-0.29231	0.256423	0.676081	1.5708	0	0	-0.106217	-0.291575	0.362658	0.731519	1.5708	0	0
2.7	2.47134	1.50594	-0.832379	0.679617	1.85468	0.959432	-0.0339211	0.0538265	-0.168741	0.349624	-0.174435	0	0	0.316788	-0.18499	-0.138206	1.32152	-0.23281	0	0	-0.0790492	0.037229	0.00768567	0.000261969	-0.291923	0.248327	0.683069	1.5708	0	0	-0.108832	-0.293953	0.35924	0.735005	1.5708	0	0
2.71	2.58533	1.50126	-0.950914	0.680275	1.86377	0.96	-0.0592025	0.0526542	-0.166347	0.337415	-0.174239	0	0	0.321979	-0.191424	-0.166618	1.29456	-0.233403	0	0	-0.0889243	0.0327124	0.0149246	0.00497738	-0.291705	0.239586	0.691384	1.5708	0	0	-0.111117	-0.296112	0.356286	0.738267	1.5708	0	0
2.72	2.6793	1.49548	-1.04931	0.680841	1.87282	0.960444	-0.0839596	0.0514627	-0.165194	0.326878	-0.173632	0	0	0.324947	-0.198189	-0.19676	1.26287	-0.235498	0	0	-0.0990221	0.0286815	0.0218706	0.00956394	-0.29147	0.230722	0.700351	1.5708	0	0	-0.113289	-0.297495	0.352461	0.741124	1.5708	0	0
2.73	2.75233	1.48963	-1.12674	0.68133	1.88178	0.960741	-0.107696	0.0502946	-0.162989	0.31677	-0.172775	0	0	0.326564	-0.20321	-0.225429	1.22593	-0.238839	0	0	-0.108606	0.0250221	0.0287964	0.0140015	-0.291309	0.221815	0.709921	1.5708	0	0	-0.115125	-0.297584	0.347144	0.742828	1.5708	0	0
2.74	2.80797	1.48404	-1.18674	0.681785	1.89062	0.960887	-0.130136	0.0493059	-0.159393	0.307173	-0.171801	0	0	0.326816	-0.206232	-0.251315	1.1836	-0.243661	0	0	-0.117532	0.0217786	0.0359148	0.0183238	-0.291282	0.21313	0.719866	1.5708	0	0	-0.115532	-0.29767	0.343558	0.742958	1.5708	0	0
2.75	2.8466	1.47885	-1.22866	0.682145	1.89933	0.960844	-0.151119	0.049098	-0.156367	0.298191	-0.170525	0	0	0.326773	-0.207288	-0.272459	1.1368	-0.250182	0	0	-0.125764	0.0193006	0.0420315	0.0227449	-0.290956	0.204433	0.72967	1.5708	0	0	-0.114906	-0.297994	0.341423	0.742251	1.5708	0	0
2.76	2.86829	1.47537	-1.25291	0.682265	1.90806	0.960542	-0.168608	0.048977	-0.155739	0.292314	-0.1687	0	0	0.327565	-0.206723	-0.291365	1.08611	-0.257918	0	0	-0.131572	0.0177848	0.0471482	0.0270362	-0.290797	0.196484	0.739038	1.5708	0	0	-0.114125	-0.297419	0.339236	0.740065	1.5708	0	0
2.77	2.88151	1.47437	-1.2686	0.682276	1.91677	0.959836	-0.182434	0.048309	-0.154416	0.288422	-0.165977	0	0	0.329515	-0.204264	-0.310103	1.03193	-0.265952	0	0	-0.134413	0.0162872	0.051843	0.031048	-0.290651	0.189289	0.748229	1.5708	0	0	-0.113766	-0.296397	0.336423	0.737443	1.5708	0	0
2.78	2.88016	1.47385	-1.26849	0.682183	1.92536	0.958943	-0.19444	0.0486797	-0.152838	0.286493	-0.162306	0	0	0.331401	-0.201	-0.326063	0.975099	-0.274193	0	0	-0.136574	0.0161726	0.0553934	0.0352531	-0.290409	0.182632	0.757115	1.5708	0	0	-0.112841	-0.295066	0.333605	0.734197	1.5708	0	0
2.79	2.8667	1.47475	-1.25512	0.681929	1.93383	0.957787	-0.205105	0.0501631	-0.149984	0.283103	-0.158218	0	0	0.334299	-0.196009	-0.338406	0.916465	-0.281348	0	0	-0.13722	0.0169423	0.0579286	0.0395141	-0.290177	0.176554	0.765642	1.5708	0	0	-0.111583	-0.293316	0.330573	0.730735	1.5708	0	0
2.8	2.8469	1.47883	-1.23451	0.681306	1.94213	0.95621	-0.211507	0.0508763	-0.148304	0.281136	-0.15301	0	0	0.339979	-0.187254	-0.345355	0.856196	-0.286311	0	0	-0.134672	0.0176721	0.0595305	0.0435492	-0.290522	0.171328	0.77404	1.5708	0	0	-0.110054	-0.290724	0.327631	0.726595	1.5708	0	0
